<svg width="39" height="39" viewBox="0 0 39 39" fill="none" xmlns="http://www.w3.org/2000/svg">
<path d="M10.0667 18.9471L27.5011 5.06732C27.5467 5.03076 27.6014 5.00805 27.6591 5.00177C27.7167 4.9955 27.7749 5.00593 27.827 5.03187C27.8791 5.0578 27.923 5.09819 27.9536 5.14839C27.9842 5.19859 28.0003 5.25657 28 5.31567V8.36282C28 8.55598 27.911 8.74126 27.7641 8.85951L13.8413 19.9404L27.7641 31.0214C27.9149 31.1396 28 31.3249 28 31.5181V34.5652C28 34.8293 27.7022 34.9752 27.5011 34.8136L10.0667 20.9338C9.91854 20.816 9.79867 20.6653 9.71622 20.4932C9.63377 20.321 9.59091 20.132 9.59091 19.9404C9.59091 19.7489 9.63377 19.5599 9.71622 19.3877C9.79867 19.2156 9.91854 19.0649 10.0667 18.9471Z" fill="white"/>
</svg>
