<svg width="39" height="39" viewBox="0 0 39 39" fill="none" xmlns="http://www.w3.org/2000/svg">
<path d="M27.5606 18.5523L11.4607 6.06059C11.4186 6.02769 11.3681 6.00724 11.3148 6.0016C11.2616 5.99595 11.2078 6.00534 11.1597 6.02868C11.1116 6.05202 11.0711 6.08837 11.0429 6.13355C11.0146 6.17873 10.9997 6.23091 11 6.2841V9.02654C11 9.20038 11.0821 9.36713 11.2179 9.47356L24.0749 19.4464L11.2179 29.4192C11.0786 29.5256 11 29.6924 11 29.8662V32.6087C11 32.8464 11.275 32.9776 11.4607 32.8322L27.5606 20.3404C27.6975 20.2344 27.8081 20.0988 27.8843 19.9438C27.9604 19.7889 28 19.6188 28 19.4464C28 19.274 27.9604 19.1039 27.8843 18.9489C27.8081 18.794 27.6975 18.6584 27.5606 18.5523Z" fill="white"/>
</svg>
