<svg width="30" height="30" viewBox="0 0 30 30" fill="none" xmlns="http://www.w3.org/2000/svg">
<path d="M18.9863 18.1528C20.3236 17.8757 21.5368 17.3959 22.4797 16.6911C24.0907 15.4882 24.9139 13.6298 24.9139 11.7936C24.9139 10.5054 24.4239 9.30308 23.575 8.28469C23.1022 7.71732 24.4851 3.48252 23.2563 4.05266C22.0269 4.62336 20.2246 5.88554 19.2806 5.60684C18.2195 5.29748 17.1192 5.14185 16.0136 5.14475C15.0123 5.14475 14.0489 5.2683 13.1505 5.49658C11.8444 5.82737 10.595 4.59067 9.33836 4.05266C8.08119 3.51521 8.76763 7.89462 8.39437 8.35561C7.58055 9.35849 7.11328 10.5353 7.11328 11.7936C7.11328 13.6298 8.10901 15.4882 9.71997 16.6917C10.7936 17.4929 12.1386 18.0037 13.6439 18.2553" stroke="white" stroke-width="2" stroke-linecap="round"/>
<path d="M13.6465 18.2554C13.0023 18.9618 12.6797 19.6327 12.6797 20.2682V25.0973" stroke="white" stroke-width="2" stroke-linecap="round"/>
<path d="M18.9883 18.1523C19.5991 18.9503 19.9044 19.6673 19.9044 20.3023V25.0977" stroke="white" stroke-width="2" stroke-linecap="round"/>
<path d="M6 18.5618C6.50009 18.6227 6.87112 18.8516 7.11254 19.2489C7.47523 19.8441 8.82251 22.054 10.3528 22.054H12.6763" stroke="white" stroke-width="2" stroke-linecap="round"/>
</svg>
