<svg width="30" height="30" viewBox="0 0 30 30" fill="none" xmlns="http://www.w3.org/2000/svg">
<path fill-rule="evenodd" clip-rule="evenodd" d="M10.2244 4.06329C11.3537 4.01151 11.7138 4 14.5906 4C17.4674 4 17.8275 4.01247 18.9559 4.06329C20.0843 4.11412 20.8545 4.29345 21.5284 4.55333C22.2341 4.81897 22.8744 5.23421 23.4039 5.77124C23.9431 6.29772 24.359 6.93449 24.6247 7.63838C24.8866 8.30967 25.0657 9.07686 25.1177 10.1989C25.1697 11.3257 25.1812 11.6843 25.1812 14.5488C25.1812 17.4143 25.1687 17.7729 25.1177 18.8978C25.0667 20.0198 24.8866 20.787 24.6247 21.4583C24.359 22.1623 23.9424 22.8001 23.4039 23.3273C22.8744 23.8644 22.2341 24.2787 21.5284 24.5433C20.8545 24.8042 20.0843 24.9825 18.9578 25.0343C17.8275 25.0861 17.4674 25.0976 14.5906 25.0976C11.7138 25.0976 11.3537 25.0852 10.2244 25.0343C9.09794 24.9835 8.32771 24.8042 7.65376 24.5433C6.947 24.2786 6.30665 23.8637 5.7773 23.3273C5.2385 22.8005 4.82156 22.163 4.55553 21.4592C4.29461 20.788 4.11553 20.0208 4.06354 18.8988C4.01155 17.772 4 17.4133 4 14.5488C4 11.6834 4.01252 11.3247 4.06354 10.2008C4.11457 9.07686 4.29461 8.30967 4.55553 7.63838C4.82195 6.93457 5.23922 6.29706 5.77826 5.77028C6.30687 5.23373 6.94657 4.81844 7.6528 4.55333C8.32675 4.29345 9.09697 4.11508 10.2234 4.06329H10.2244ZM18.8702 5.96208C17.7534 5.91125 17.4183 5.9007 14.5906 5.9007C11.7629 5.9007 11.4279 5.91125 10.311 5.96208C9.27798 6.00907 8.71764 6.18073 8.34408 6.32553C7.85017 6.51733 7.49683 6.74461 7.12616 7.11382C6.77478 7.45431 6.50437 7.86881 6.33475 8.32693C6.18937 8.69902 6.01703 9.25714 5.96985 10.2861C5.91883 11.3986 5.90824 11.7323 5.90824 14.5488C5.90824 17.3653 5.91883 17.6991 5.96985 18.8115C6.01703 19.8405 6.18937 20.3986 6.33475 20.7707C6.5042 21.2281 6.77474 21.6434 7.12616 21.9838C7.46794 22.3338 7.88483 22.6033 8.34408 22.7721C8.71764 22.9169 9.27798 23.0886 10.311 23.1355C11.4279 23.1864 11.762 23.1969 14.5906 23.1969C17.4193 23.1969 17.7534 23.1864 18.8702 23.1355C19.9032 23.0886 20.4636 22.9169 20.8371 22.7721C21.3311 22.5803 21.6844 22.353 22.0551 21.9838C22.4065 21.6434 22.677 21.2281 22.8465 20.7707C22.9919 20.3986 23.1642 19.8405 23.2114 18.8115C23.2624 17.6991 23.273 17.3653 23.273 14.5488C23.273 11.7323 23.2624 11.3986 23.2114 10.2861C23.1642 9.25714 22.9919 8.69902 22.8465 8.32693C22.6539 7.83497 22.4257 7.48303 22.0551 7.11382C21.7132 6.76386 21.2971 6.49452 20.8371 6.32553C20.4636 6.18073 19.9032 6.00907 18.8702 5.96208V5.96208ZM13.2379 17.8007C13.9934 18.114 14.8346 18.1562 15.6178 17.9203C16.4011 17.6844 17.0779 17.185 17.5325 16.5073C17.9871 15.8296 18.1915 15.0157 18.1106 14.2046C18.0297 13.3936 17.6686 12.6356 17.089 12.0603C16.7196 11.6925 16.2728 11.4108 15.7809 11.2357C15.2891 11.0605 14.7643 10.9961 14.2445 11.0472C13.7246 11.0983 13.2226 11.2635 12.7746 11.531C12.3266 11.7985 11.9437 12.1617 11.6535 12.5943C11.3632 13.0269 11.1729 13.5182 11.0962 14.0328C11.0195 14.5475 11.0583 15.0727 11.2098 15.5706C11.3614 16.0686 11.6219 16.5268 11.9725 16.9124C12.3232 17.2981 12.7554 17.6014 13.2379 17.8007ZM10.7414 10.7148C11.2469 10.2113 11.847 9.81192 12.5074 9.53943C13.1679 9.26695 13.8757 9.1267 14.5906 9.1267C15.3055 9.1267 16.0133 9.26694 16.6738 9.53943C17.3342 9.81192 17.9343 10.2113 18.4398 10.7148C18.9453 11.2183 19.3463 11.816 19.6198 12.4739C19.8934 13.1317 20.0342 13.8368 20.0342 14.5488C20.0342 15.2609 19.8934 15.9659 19.6198 16.6238C19.3463 17.2816 18.9453 17.8793 18.4398 18.3828C17.4189 19.3997 16.0343 19.9709 14.5906 19.9709C13.1469 19.9709 11.7623 19.3997 10.7414 18.3828C9.72053 17.366 9.14701 15.9868 9.14701 14.5488C9.14701 13.1108 9.72053 11.7316 10.7414 10.7148V10.7148ZM21.2415 9.93419C21.3668 9.81649 21.4671 9.67495 21.5364 9.51796C21.6058 9.36097 21.6428 9.19171 21.6453 9.02021C21.6478 8.84871 21.6158 8.67844 21.551 8.5195C21.4863 8.36056 21.3902 8.21618 21.2684 8.09489C21.1467 7.97361 21.0017 7.87789 20.8421 7.81341C20.6826 7.74893 20.5116 7.71699 20.3395 7.71949C20.1673 7.72199 19.9973 7.75888 19.8397 7.82797C19.6821 7.89706 19.54 7.99694 19.4219 8.12171C19.1921 8.36436 19.0662 8.68667 19.0711 9.02021C19.076 9.35375 19.2112 9.67227 19.448 9.90814C19.6848 10.144 20.0046 10.2787 20.3395 10.2835C20.6743 10.2884 20.9979 10.1631 21.2415 9.93419V9.93419Z" fill="white"/>
</svg>
