<svg width="30" height="30" viewBox="0 0 30 30" fill="none" xmlns="http://www.w3.org/2000/svg">
<path d="M19.8875 15.741V19.6407H17.6179V16.0016C17.6179 15.0881 17.2896 14.4647 16.4678 14.4647C15.8408 14.4647 15.467 14.8845 15.3028 15.2917C15.2435 15.4373 15.2276 15.6398 15.2276 15.8423V19.6407H12.957C12.957 19.6407 12.9877 13.4784 12.957 12.8403H15.2276V13.8033L15.2128 13.8255H15.2276V13.8044C15.5295 13.3402 16.0675 12.6799 17.2737 12.6799C18.767 12.6799 19.8875 13.6525 19.8875 15.741V15.741ZM10.5815 9.56079C9.80522 9.56079 9.29688 10.0692 9.29688 10.7359C9.29688 11.3899 9.7904 11.912 10.5519 11.912H10.5667C11.3589 11.912 11.8513 11.3888 11.8513 10.7359C11.8365 10.0692 11.3589 9.56079 10.5815 9.56079ZM9.43138 19.6407H11.702V12.8403H9.43138V19.6407V19.6407Z" fill="white"/>
<path d="M8.23625 6.10976C7.67448 6.10976 7.13573 6.33204 6.73851 6.7277C6.34128 7.12335 6.11812 7.65998 6.11812 8.21952V20.8781C6.11812 21.4376 6.34128 21.9743 6.73851 22.3699C7.13573 22.7656 7.67448 22.9879 8.23625 22.9879H20.945C21.5067 22.9879 22.0455 22.7656 22.4427 22.3699C22.8399 21.9743 23.0631 21.4376 23.0631 20.8781V8.21952C23.0631 7.65998 22.8399 7.12335 22.4427 6.7277C22.0455 6.33204 21.5067 6.10976 20.945 6.10976H8.23625ZM8.23625 4H20.945C22.0685 4 23.146 4.44456 23.9405 5.23587C24.7349 6.02718 25.1812 7.10044 25.1812 8.21952V20.8781C25.1812 21.9972 24.7349 23.0704 23.9405 23.8618C23.146 24.6531 22.0685 25.0976 20.945 25.0976H8.23625C7.11272 25.0976 6.03522 24.6531 5.24077 23.8618C4.44632 23.0704 4 21.9972 4 20.8781V8.21952C4 7.10044 4.44632 6.02718 5.24077 5.23587C6.03522 4.44456 7.11272 4 8.23625 4V4Z" fill="white"/>
</svg>
