<svg width="30" height="30" viewBox="0 0 30 30" fill="none" xmlns="http://www.w3.org/2000/svg">
<path d="M15.6943 4C9.91451 4 7 8.12791 7 11.5699C7 13.6563 7.79387 15.5086 9.49093 16.1986C9.77104 16.313 10.0197 16.2041 10.1003 15.8979L10.349 14.922C10.4324 14.6212 10.3996 14.5137 10.1755 14.2483C9.68496 13.674 9.37205 12.9254 9.37205 11.8707C9.37205 8.80841 11.6717 6.06736 15.3623 6.06736C18.6307 6.06736 20.4261 8.0585 20.4261 10.7111C20.4261 14.2061 18.8726 17.1541 16.5675 17.1541C15.294 17.1541 14.3416 16.1061 14.6477 14.8199C15.0139 13.282 15.7217 11.6257 15.7217 10.5192C15.7217 9.52702 15.186 8.70089 14.082 8.70089C12.7812 8.70089 11.7345 10.0401 11.7345 11.8366C11.7345 12.9812 12.1253 13.7543 12.1253 13.7543L10.5594 20.3579C10.0949 22.3177 10.4898 24.7212 10.5253 24.9648C10.543 25.1064 10.7289 25.1431 10.8122 25.0342C10.9325 24.8777 12.4833 22.9696 13.008 21.0669C13.1597 20.528 13.8647 17.7393 13.8647 17.7393C14.2897 18.5409 15.5222 19.2473 16.8366 19.2473C20.7486 19.2473 23.4008 15.6978 23.4008 10.9411C23.3967 7.34806 20.3401 4 15.6943 4V4Z" fill="white"/>
</svg>
